<svg xmlns="http://www.w3.org/2000/svg" width="85.333" height="85.333" viewBox="0 0 64 64"><path fill="#00000000" d="M.1 13.2c0 12.4.1 13 1.3 9.2 2.9-9.3 11.7-18.1 21-21C26.2.2 25.6.1 13.3.1L0 0zM39.5.9c10.9 2.7 20.9 12.7 23.6 23.6.4 1.8.7-2.6.8-10.8L64 0 50.3.1c-8.2.1-12.6.4-10.8.8"/><path fill="#1d4ed8" d="m20.1 9.7-9.4 3.7.5 9.3c.5 8.2 1 10.3 4.2 16.7C19.2 47.3 28.5 57 32 57s12.8-9.7 16.6-17.6c3.2-6.4 3.7-8.5 4.2-16.7l.5-9.4-2.9-1.1C40.6 8.4 33.5 6 31.6 6.1c-1.1 0-6.3 1.7-11.5 3.6m21.8 1.5 9.3 3.3-.5 8C50 34.2 47 41 39.6 48.7 36.2 52.2 32.8 55 32 55s-4.2-2.8-7.6-6.3C16.9 41 14 34.1 13.3 22.5l-.5-8 8.8-3.2c4.9-1.7 9.4-3.2 9.9-3.2.6-.1 5.2 1.3 10.4 3.1"/><path fill="#1d4ed8" d="M32.4 15.3c-.2.7-.3 8-.2 16.2.3 17.4.9 18.2 6.9 9.5 4-5.8 5.7-10.7 6.1-17.9l.3-4.4-6-2.4c-7-2.7-6.4-2.6-7.1-1"/><path fill="#00000000" d="M.1 50.2 0 64l13.8-.1c8.1-.1 12.5-.4 10.7-.8C13.6 60.4 3.6 50.4.9 39.5.5 37.7.2 42.1.1 50.2m62.5-9c-1.6 8.2-11.7 18.5-21 21.4-3.8 1.2-3.2 1.3 9.2 1.3L64 64V51c0-7.2-.2-13-.4-13s-.6 1.5-1 3.2"/></svg>