<?xml version="1.0" standalone="no"?>
<!DOCTYPE svg PUBLIC "-//W3C//DTD SVG 20010904//EN"
 "http://www.w3.org/TR/2001/REC-SVG-20010904/DTD/svg10.dtd">
<svg version="1.0" xmlns="http://www.w3.org/2000/svg"
 width="64.000000pt" height="64.000000pt" viewBox="0 0 64.000000 64.000000"
 preserveAspectRatio="xMidYMid meet">

<g transform="translate(0.000000,64.000000) scale(0.100000,-0.100000)" stroke="none">
<path fill="#00000000" d="M1 508 c0 -124 1 -130 13 -92 29 93 117 181 210 210 38 12 32 13 -91
13 l-133 1 1 -132z"/>
<path fill="#00000000" d="M395 631 c109 -27 209 -127 236 -236 4 -18 7 26 8 108 l1 137 -137
-1 c-82 -1 -126 -4 -108 -8z"/>
<path fill="#1d4ed8" d="M201 543 l-94 -37 5 -93 c5 -82 10 -103 42 -167 38 -79 131 -176 166
-176 35 0 128 97 166 176 32 64 37 85 42 167 l5 94 -29 11 c-98 38 -169 62
-188 61 -11 0 -63 -17 -115 -36z m218 -15 l93 -33 -5 -80 c-7 -117 -37 -185
-111 -262 -34 -35 -68 -63 -76 -63 -8 0 -42 28 -76 63 -75 77 -104 146 -111
262 l-5 80 88 32 c49 17 94 32 99 32 6 1 52 -13 104 -31z"/>
<path fill="#1d4ed8" d="M324 487 c-2 -7 -3 -80 -2 -162 3 -174 9 -182 69 -95 40 58 57 107
61 179 l3 44 -60 24 c-70 27 -64 26 -71 10z"/>
<path fill="#00000000" d="M1 138 l-1 -138 138 1 c81 1 125 4 107 8 -109 27 -209 127 -236 236
-4 18 -7 -26 -8 -107z"/>
<path fill="#00000000" d="M626 228 c-16 -82 -117 -185 -210 -214 -38 -12 -32 -13 92 -13 l132
-1 0 130 c0 72 -2 130 -4 130 -2 0 -6 -15 -10 -32z"/>
</g>
</svg>
